<svg id="logosandtypes_com" xmlns="http://www.w3.org/2000/svg" viewBox="0 0 150 150"><path d="M0 0h150v150H0V0z" fill="none"/><path d="M139.5 70.1c0-.6-.6-1.1-1.2-1.1H97.6c-3.8-15.6-22.3-15.1-22.2-28.1 0-.2-.2-.5-.4-.5-.2-.1-.5 0-.6.2-6.8 9.5.1 20.8.3 27 .3 7.7-15.1 7.3-13.5-8 .1-.6-.3-1.1-.9-1.1-.3 0-.6.1-.8.3-4.3 4.2-6.8 10.1-6.8 16.1 0 12.6 10.2 22.8 22.8 22.8h22.3c-13.3 12.3-34 11.6-46.4-1.6-12.3-13.3-11.6-34 1.6-46.4 4.3-4 9.5-6.7 15.2-8 .6-1.4 1.3-2.7 2.2-3.9 1-1.4 2.6-2.2 4.3-2.2h.7l.9.3c2.2.7 3.7 2.8 3.7 5.1v.3c7.6 1.1 14.6 4.8 19.7 10.5.4.5 1.1.5 1.6.1L124 34c.5-.4.6-1.2.2-1.7-22.9-27-63.4-30.3-90.4-7.4-27 22.9-30.3 63.4-7.4 90.4 22.9 27 63.4 30.3 90.4 7.4 14.4-12.2 22.6-30.1 22.6-48.9.2-1.3.2-2.5.1-3.7zM80.8 86.7c-6.6 3.4-14.6.8-18-5.8 10.4 3.9 22.3-3.2 20.3-16.1 3.1 2.5 4.9 5.1 4.9 10.1.1 5-2.7 9.5-7.2 11.8z" fill="#cf7046"/><path d="M139.5 70.1c0-.6-.6-1.1-1.2-1.1H97.6c-3.8-15.6-22.3-15.1-22.2-28.1 0-.2-.2-.5-.4-.5-.2-.1-.5 0-.6.2-6.8 9.5.1 20.8.3 27 .3 7.7-15.1 7.3-13.5-8 .1-.6-.3-1.1-.9-1.1-.3 0-.6.1-.8.3-4.3 4.2-6.8 10.1-6.8 16.1 0 12.6 10.2 22.8 22.8 22.8h22.3c-13.3 12.3-34 11.6-46.4-1.6-12.3-13.3-11.6-34 1.6-46.4 4.3-4 9.5-6.7 15.2-8 .6-1.4 1.3-2.7 2.2-3.9 1-1.4 2.6-2.2 4.3-2.2h.7l.9.3c2.2.7 3.7 2.8 3.7 5.1v.3c7.6 1.1 14.6 4.8 19.7 10.5.4.5 1.1.5 1.6.1L124 34c.5-.4.6-1.2.2-1.7-22.9-27-63.4-30.3-90.4-7.4s-30.3 63.4-7.4 90.4 63.4 30.3 90.4 7.4c14.4-12.2 22.6-30.1 22.6-48.9.2-1.3.2-2.5.1-3.7zm-64 54.1c-27.9 0-50.5-22.6-50.5-50.5s22.6-50.5 50.5-50.5c11.7 0 23 4 32 11.5.2.2.2.5.1.7l-.1.1-2.2 1.7c-.2.1-.4.1-.6 0-20.2-16.3-49.7-13-65.9 7.3S26 94.2 46.2 110.4s49.7 12.8 65.9-7.4c4.2-5.2 7.2-11.3 8.8-17.8H90.3c-5.7 8.2-16.9 10.3-25.1 4.6-4.9-3.4-7.8-8.9-7.8-14.9 0-1.7.2-3.3.7-4.9.6 1.1 1.3 2.1 2.1 3.1 2.4 2.6 5.7 4.2 9.2 4.2 2.8 0 5.5-1 7.4-3 1.7-1.8 2.7-4.3 2.5-6.8-.1-2.3-.8-4.8-1.5-7.5-.6-2.1-1.2-4.3-1.5-6.5 1.9 1.7 3.9 3.2 6.1 4.5 6 4 11.1 7.5 11.1 17 0 2.3-.5 4.6-1.3 6.7h31c1 0 1.8.8 1.8 1.8v.3c-4.9 23.4-25.5 40.3-49.5 40.4z" fill="#382e2b"/></svg>