<svg id="logosandtypes_com" xmlns="http://www.w3.org/2000/svg" viewBox="0 0 150 150.2"><style>.st1{fill:#f9423a}</style><g id="Layer_3_2_"><g id="Layer_2_1_"><path id="Layer_3" d="M0 .2h150v150H0V.2z" fill="none"/></g></g><g id="Naturalis"><path class="st1" d="M57.6 90.5h34.7c5.8 0 10.5 4.7 10.5 10.5s-4.7 10.5-10.5 10.5H57.6c-5.8 0-10.5-4.7-10.5-10.5-.1-5.7 4.7-10.5 10.5-10.5zM57.6 116.8h34.7c5.8 0 10.5 4.7 10.5 10.5s-4.7 10.5-10.5 10.5H57.6c-5.8 0-10.5-4.7-10.5-10.5-.1-5.8 4.7-10.5 10.5-10.5zM92.5 10.8c-5.8 0-10.5 4.7-10.5 10.5v17.5L66.9 16v.1c-2.9-5-9.4-6.7-14.4-3.8-3.2 1.9-5.2 5.4-5.2 9.1v53.4c0 5.8 4.7 10.5 10.5 10.5s10.5-4.7 10.5-10.5V57.2L83 79.5v-.2c1.8 3.6 5.4 6 9.5 6 5.8 0 10.5-4.7 10.5-10.5V21.4c0-5.8-4.7-10.5-10.5-10.6z"/></g></svg>